<svg xmlns="http://www.w3.org/2000/svg" width="24" height="25" fill="none"><path fill="#4285F4" d="M22.501 12.733c0-.863-.071-1.493-.226-2.147h-10.06v3.897h5.905c-.119.968-.762 2.427-2.19 3.407l-.02.13 3.18 2.415.22.021c2.024-1.831 3.191-4.526 3.191-7.723"/><path fill="#34A853" d="M12.214 23c2.893 0 5.321-.933 7.095-2.543l-3.38-2.567c-.905.618-2.12 1.05-3.715 1.05a6.44 6.44 0 0 1-6.095-4.363l-.126.01-3.307 2.508-.043.118C4.404 20.643 8.023 23 12.214 23"/><path fill="#FBBC05" d="M6.12 14.577a6.4 6.4 0 0 1-.357-2.077c0-.723.131-1.423.346-2.077l-.006-.139-3.35-2.548-.109.05A10.34 10.34 0 0 0 1.501 12.5c0 1.692.417 3.29 1.143 4.713z"/><path fill="#EB4335" d="M12.214 6.06c2.012 0 3.369.852 4.143 1.563L19.38 4.73C17.524 3.038 15.107 2 12.214 2c-4.19 0-7.81 2.357-9.571 5.787l3.464 2.636a6.465 6.465 0 0 1 6.107-4.363"/></svg>