<svg xmlns="http://www.w3.org/2000/svg" width="24" height="24" fill="none"><path fill="#111" d="m19.882 4.881-.736-.736c-.207-.208-.591-.176-.832.112l-2.56 2.544c-1.152-.496-2.416-.736-3.744-.736-3.952.016-7.376 2.32-9.024 5.632-.096.208-.096.464 0 .64a9.86 9.86 0 0 0 3.36 3.84L4.25 18.305c-.24.24-.272.624-.112.832l.736.736c.208.208.592.176.832-.112L19.754 5.713c.304-.24.336-.623.128-.831m-7.024 4.832c-.272-.064-.56-.144-.832-.144a2.44 2.44 0 0 0-2.448 2.448c0 .272.064.56.144.832L8.65 13.905a3.73 3.73 0 0 1-.496-1.888 3.83 3.83 0 0 1 3.84-3.84c.704 0 1.328.176 1.888.496zm8.176 1.983c-.56-1.12-1.296-2.128-2.207-2.944l-2.977 2.944v.32a3.83 3.83 0 0 1-3.84 3.84h-.32l-1.887 1.888c.704.144 1.44.24 2.16.24 3.952 0 7.375-2.304 9.024-5.632a.65.65 0 0 0 .048-.656"/></svg>